<svg xmlns="http://www.w3.org/2000/svg" width="132" height="110" viewBox="0 0 172 150" fill="none">
  <g filter="url(#filter0_d_190_2)">
    <path d="M94.6897 139.379L26.6207 69.6897L49.3104 34.0345H141.69L166 69.6897L94.6897 139.379Z" fill="#242424"/>
  </g>
  <path d="M29.1634 68.1481L25 69.9132C24.9997 70.9683 25.4056 72.0156 26.1975 72.8045L91.8166 138.194C92.5823 138.957 93.8977 139.376 94.67 139.379C95.4546 139.383 96.7964 138.97 97.5755 138.193L163.183 72.7625C163.973 71.9747 164.379 70.9302 164.38 69.8769L160.76 68.1483C158.741 68.1483 139.993 68.1483 117.214 68.1483L92.7868 76.0333L72.1279 68.1483C50.6997 68.148 32.8521 68.1481 29.1634 68.1481Z" fill="#383838"/>
  <path d="M164.378 69.8772C164.378 70.9294 163.973 71.9736 163.182 72.762L97.5745 138.193C96.8024 138.965 95.4726 139.378 94.6897 139.378V75.4184L117.213 68.1481H160.76L164.378 69.8772Z" fill="#141414"/>
  <path d="M72.1274 68.1481L94.6897 139.378L117.213 68.1481H72.1274Z" fill="#141414"/>
  <path d="M117.213 68.1481L94.6897 139.378V68.1481H117.213Z" fill="#2E2E2E"/>
  <path d="M163.695 67.6104L141.855 34.8881C141.553 34.4357 141.164 34.0513 140.716 33.7546L138.736 34.7052L98.4679 34.9562L94.6897 33.0737L91.6364 34.9986L51.4589 35.2491L48.6553 33.7586C48.2102 34.0545 47.8223 34.4376 47.5206 34.8903L25.6825 67.6537C25.2227 68.3435 25 69.1305 25 69.9131C32.9111 69.9109 154.162 69.8791 164.379 69.8764C164.38 69.0915 164.157 68.3018 163.695 67.6104Z" fill="#242424"/>
  <path d="M164.378 69.8772C159.316 69.8772 126.982 69.8881 94.6897 69.8963V33.0737L98.469 34.9551L138.736 34.7049L140.716 33.7532C141.164 34.0524 141.553 34.4357 141.855 34.887L163.696 67.6093C164.158 68.303 164.381 69.0913 164.378 69.8772Z" fill="#383838"/>
  <path d="M50.914 33.0737C50.0984 33.0737 49.316 33.319 48.6561 33.7581L72.845 69.9006H72.8477L94.6883 33.0737H50.914Z" fill="#383838"/>
  <path d="M116.539 69.8892L140.715 33.754C140.056 33.3176 139.276 33.074 138.463 33.074H94.6882L116.522 69.8895H116.539V69.8892Z" fill="#141414"/>
  <path d="M70.3048 98.3602C63.4788 98.3602 57.9251 92.8068 57.9251 85.9807C57.9251 83.7256 56.0968 81.8973 53.8417 81.8973C51.5866 81.8973 49.7583 83.7256 49.7583 85.9807C49.7583 92.7725 44.2384 98.3602 37.3789 98.3602C35.1238 98.3602 33.2955 100.188 33.2955 102.444C33.2955 104.699 35.1238 106.527 37.3789 106.527C44.205 106.527 49.7583 112.08 49.7583 118.906C49.7583 121.161 51.5866 122.99 53.8417 122.99C56.0968 122.99 57.9251 121.161 57.9251 118.906C57.9251 112.115 63.4445 106.527 70.3048 106.527C72.5599 106.527 74.3882 104.699 74.3882 102.444C74.3882 100.188 72.5599 98.3602 70.3048 98.3602Z" fill="#242424"/>
  <path d="M132.891 16.4628C126.065 16.4628 120.511 10.9094 120.511 4.08338C120.511 1.82826 118.683 0 116.428 0C114.173 0 112.345 1.82826 112.345 4.08338C112.345 10.9094 106.792 16.4628 99.9652 16.4628C97.7101 16.4628 95.8818 18.2911 95.8818 20.5462C95.8818 22.8013 97.7101 24.6296 99.9652 24.6296C106.791 24.6296 112.345 30.183 112.345 37.009C112.345 39.2641 114.173 41.0924 116.428 41.0924C118.683 41.0924 120.511 39.2641 120.511 37.009C120.511 30.183 126.065 24.6296 132.891 24.6296C135.146 24.6296 136.974 22.8013 136.974 20.5462C136.974 18.2911 135.146 16.4628 132.891 16.4628Z" fill="#242424"/>
  <defs>
    <filter id="filter0_d_190_2" x="0.620728" y="12.0345" width="191.379" height="157.345" filterUnits="userSpaceOnUse" color-interpolation-filters="sRGB">
      <feFlood flood-opacity="0" result="BackgroundImageFix"/>
      <feColorMatrix in="SourceAlpha" type="matrix" values="0 0 0 0 0 0 0 0 0 0 0 0 0 0 0 0 0 0 127 0" result="hardAlpha"/>
      <feOffset dy="4"/>
      <feGaussianBlur stdDeviation="13"/>
      <feComposite in2="hardAlpha" operator="out"/>
      <feColorMatrix type="matrix" values="0 0 0 0 0.92549 0 0 0 0 0.109804 0 0 0 0 0.141176 0 0 0 0.28 0"/>
      <feBlend mode="normal" in2="BackgroundImageFix" result="effect1_dropShadow_190_2"/>
      <feBlend mode="normal" in="SourceGraphic" in2="effect1_dropShadow_190_2" result="shape"/>
    </filter>
  </defs>
</svg>